<?xml version="1.0" encoding="UTF-8"?>
<!DOCTYPE svg PUBLIC "-//W3C//DTD SVG 1.1//EN" "http://www.w3.org/Graphics/SVG/1.1/DTD/svg11.dtd">
<!-- Creator: CorelDRAW X7 -->
<svg xmlns="http://www.w3.org/2000/svg" xml:space="preserve" width="221px" height="96px" version="1.1" style="shape-rendering:geometricPrecision; text-rendering:geometricPrecision; image-rendering:optimizeQuality; fill-rule:evenodd; clip-rule:evenodd"
viewBox="0 0 13000 6000"
 xmlns:xlink="http://www.w3.org/1999/xlink">
 <defs>
  <style type="text/css">
   <![CDATA[
    .fil1 {fill:#ffffff}
    .fil0 {fill:#ffffff;fill-rule:nonzero}
   ]]>
  </style>
 </defs>
 <g id="Warstwa_x0020_1">
  <metadata id="CorelCorpID_0Corel-Layer"/>
  <g id="_2410680934192">
   <path class="fil0" d="M4970 1727l87 -13 4 0 0 4 0 623c0,53 5,98 15,135 9,37 23,66 42,87l0 1c18,21 43,37 74,47 31,11 69,16 113,16 45,0 82,-5 114,-16 31,-10 56,-26 75,-47l0 0c18,-21 32,-50 42,-87 9,-37 14,-83 14,-136l0 -610 0 -4 3 0 89 -13 4 0 0 4 0 624c0,77 -6,135 -17,174 -6,20 -13,39 -23,56 -9,17 -21,33 -34,47 -15,16 -31,30 -50,42 -19,13 -40,23 -63,32l0 0c-24,9 -48,15 -74,20 -25,4 -52,6 -80,6 -27,0 -54,-2 -79,-6 -26,-5 -50,-11 -74,-20l0 0c-23,-9 -44,-19 -63,-32l0 0c-19,-12 -36,-26 -50,-42 -13,-14 -24,-30 -34,-47 -9,-16 -16,-35 -22,-54 -5,-20 -10,-44 -12,-73 -3,-30 -4,-64 -4,-103l0 -611 0 -4 3 0zm867 978l0 -711 0 -3 4 -1 79 -9 4 -1 0 4 0 108c13,-17 27,-33 42,-47 17,-16 35,-30 54,-41l0 0c20,-11 40,-19 62,-24 21,-6 44,-8 68,-8l0 0c39,0 74,6 105,18 30,12 57,30 78,54l0 0c22,24 39,53 49,87 11,33 17,72 17,115l0 0 0 450 0 3 -4 0 -77 10 -4 1 0 -5 0 -419 0 0c0,-41 -4,-76 -12,-106 -7,-30 -19,-55 -34,-75l0 0c-16,-19 -35,-34 -57,-44 -23,-10 -50,-15 -81,-15 -28,0 -54,5 -78,15 -24,11 -46,26 -66,47l0 0c-21,20 -36,43 -46,68 -11,25 -16,52 -16,81l0 439 0 3 -3 0 -79 10 -5 1 0 -5zm737 -934l59 -72 3 -4 3 3 60 65 3 2 -3 3 -60 72 -3 4 -3 -4 -59 -64 -2 -2 2 -3zm19 936l0 -713 0 -3 3 -1 81 -9 4 -1 0 4 0 712 0 3 -3 0 -81 11 -4 1 0 -4zm493 6l-306 -708 -2 -4 4 -1 79 -28 3 -1 2 3 229 539 254 -539 3 -7 4 7 252 536 241 -536 2 -3 3 1 73 24 4 1 -2 4 -317 712 -3 8 -4 -8 -257 -555 -255 555 -4 8 -3 -8zm996 -314l454 -271c-9,-10 -19,-19 -30,-27 -12,-9 -25,-17 -40,-23 -15,-6 -31,-11 -47,-14 -17,-3 -35,-4 -54,-4 -40,0 -77,6 -111,20 -33,14 -64,34 -92,62 -27,27 -48,58 -62,91 -14,34 -21,70 -21,110 0,7 1,13 1,18 0,6 0,11 0,15l0 0c0,5 1,10 1,15l1 8zm563 216c-23,18 -46,33 -69,45 -23,13 -46,24 -69,32l0 0c-23,8 -46,14 -70,18 -24,4 -48,7 -72,7 -54,0 -104,-9 -148,-27 -45,-18 -86,-45 -121,-80 -36,-36 -63,-76 -81,-120 -17,-44 -26,-92 -26,-145 0,-53 9,-101 27,-145 18,-45 45,-84 80,-119 36,-36 77,-62 122,-80 44,-17 93,-26 147,-26 33,0 65,4 95,11 29,7 57,18 82,33 26,15 48,32 68,54 20,21 37,45 51,73l2 3 -3 2 -548 323c12,24 27,45 44,63 17,19 37,36 59,49 22,14 46,24 71,31 25,7 51,10 79,10l0 0c22,0 43,-2 65,-7 22,-5 44,-11 65,-21 22,-9 45,-21 69,-36 24,-15 50,-34 77,-55l6 -5 0 8 0 101 0 2 -2 1zm156 90l0 -711 0 -3 3 -1 78 -9 5 -1 0 4 0 137c12,-22 26,-42 40,-59 18,-21 37,-39 58,-53 21,-14 43,-24 67,-31 25,-7 50,-11 78,-11l19 0 6 0 -2 6 -33 77 -1 3 -2 0c-39,4 -73,14 -102,31 -29,17 -53,41 -72,71 -19,31 -33,69 -42,115 -10,46 -14,100 -14,161l0 265 0 3 -4 0 -78 10 -4 1 0 -5zm385 -101l59 -56 3 -3 2 3c13,14 26,27 40,38 13,10 28,19 43,26l0 0c15,8 30,13 46,17 16,3 33,5 50,5 22,0 41,-3 58,-9 18,-6 33,-15 46,-26l0 0c14,-12 24,-26 30,-41 7,-15 10,-32 10,-51 0,-17 -2,-32 -7,-45 -5,-13 -12,-24 -22,-33 -10,-10 -23,-19 -41,-27 -18,-8 -39,-15 -65,-21l0 0c-44,-11 -81,-23 -112,-36 -30,-14 -54,-28 -70,-43l0 0c-17,-16 -29,-34 -37,-55l0 0c-8,-22 -12,-46 -12,-73 0,-28 5,-55 16,-79 11,-24 28,-45 50,-65l0 0c22,-19 48,-34 76,-44 28,-9 59,-14 92,-14l0 0c21,0 40,1 60,5 19,3 37,8 55,15l0 0c18,7 35,15 51,25 17,10 32,21 48,35l2 2 -2 3 -49 65 -3 3 -3 -3c-13,-11 -26,-21 -40,-30 -13,-8 -27,-16 -40,-22l0 0c-14,-6 -27,-10 -40,-13 -14,-3 -27,-4 -40,-4 -22,0 -41,3 -58,8 -18,6 -33,14 -46,25l0 0c-13,11 -22,23 -29,37 -6,15 -10,31 -10,49 0,26 12,49 35,68 24,19 60,35 108,46l0 0c9,2 17,4 24,6 9,2 16,4 21,6 30,8 57,19 79,31 23,13 42,28 57,44l0 0c16,17 27,36 35,56 7,21 11,43 11,68 0,32 -6,61 -17,88l0 0c-12,27 -29,51 -52,72l0 0c-24,21 -50,37 -79,48 -29,10 -61,16 -95,16 -25,0 -48,-3 -71,-7 -22,-5 -43,-12 -63,-22 -20,-9 -39,-21 -57,-34 -17,-14 -33,-30 -48,-49l-2 -2 3 -3zm749 353l-78 -21 -5 -1 2 -4 178 -355 -319 -573 -3 -4 5 -2 77 -22 3 -1 1 3 282 508 250 -508 2 -3 3 1 75 21 5 1 -2 4 -472 954 -1 3 -3 -1zm860 -258c-6,2 -13,3 -20,5 -6,1 -13,2 -19,3 -7,0 -13,1 -19,1 -6,1 -12,1 -17,1 -36,0 -67,-5 -92,-15 -26,-10 -46,-25 -61,-46 -15,-20 -27,-48 -34,-85 -7,-36 -11,-81 -11,-134l0 -355 -98 0 -5 0 1 -5 23 -76 1 -3 3 0 75 0 0 -162 0 -3 2 -1 78 -47 6 -4 0 7 0 210 180 0 4 0 0 4 0 76 0 4 -4 0 -180 0 0 365 0 0c0,38 2,69 7,94 4,24 10,43 19,55 8,11 20,20 35,26 15,6 33,9 55,9 5,0 10,0 15,-1 5,0 11,-1 16,-1 6,-1 12,-2 19,-3 6,-1 13,-2 20,-4l4 -1 0 5 0 78 0 3 -3 0zm183 -300l454 -271c-9,-10 -19,-19 -30,-27 -12,-9 -25,-17 -40,-23 -15,-6 -31,-11 -48,-14 -16,-3 -34,-4 -53,-4 -40,0 -77,6 -111,20 -34,14 -64,34 -92,62 -28,27 -48,58 -62,91 -14,34 -21,70 -21,110 0,7 0,13 0,18 1,6 1,11 1,15 0,5 1,10 1,15l0 0c0,3 0,5 1,8zm563 216c-23,18 -46,33 -69,45 -23,13 -46,24 -69,32l0 0c-23,8 -46,14 -70,18 -24,4 -48,7 -72,7 -54,0 -104,-9 -149,-27 -44,-18 -85,-45 -120,-80 -36,-36 -63,-76 -81,-120 -18,-44 -26,-92 -26,-145 0,-53 9,-101 26,-145 18,-45 45,-84 81,-119 36,-36 77,-62 121,-80 45,-17 94,-26 148,-26l0 0c33,0 65,4 95,11 29,7 57,18 82,33l0 0c25,15 48,32 68,54 20,21 37,45 51,73l2 3 -4 2 -547 323c12,24 27,45 43,63 18,19 38,36 60,49 22,14 46,24 71,31 25,7 51,10 79,10l0 0c21,0 43,-2 65,-7 22,-5 43,-11 65,-21 22,-9 45,-21 69,-36 24,-15 50,-34 77,-55l6 -5 0 8 0 101 0 2 -2 1zm460 84c-7,2 -14,3 -20,5 -7,1 -14,2 -20,3 -6,0 -13,1 -19,1 -6,1 -11,1 -17,1 -36,0 -66,-5 -92,-15l0 0c-25,-10 -46,-25 -61,-46 -15,-20 -26,-48 -34,-85 -7,-36 -11,-81 -11,-134l0 -355 -98 0 -5 0 2 -5 22 -76 1 -3 3 0 75 0 0 -162 0 -3 2 -1 79 -47 5 -4 0 7 0 210 180 0 4 0 0 4 0 76 0 4 -4 0 -180 0 0 365 0 0c0,38 3,69 7,94 4,24 11,43 19,55 9,11 20,20 35,26 15,6 34,9 55,9 5,0 10,0 15,-1 6,0 11,-1 17,-1 6,-1 12,-2 18,-3 6,-1 13,-2 20,-4l5 -1 0 5 0 78 0 3 -3 0z"/>
   <path class="fil0" d="M5377 4258l-410 -986 -2 -5 5 -1 83 -16 3 -1 1 3 330 796 146 -354 -174 -422 -2 -5 5 -1 73 -16 3 -1 1 3 139 336 138 -336 2 -3 3 1 73 16 4 1 -1 5 -176 422 148 354 329 -796 1 -3 3 1 84 16 4 1 -1 5 -410 986 -4 8 -3 -8 -194 -458 -194 458 -4 8 -3 -8zm887 -13l0 -711 0 -4 3 0 79 -10 4 0 0 4 0 137c12,-22 26,-42 40,-60 18,-21 37,-38 58,-52 21,-14 43,-24 68,-31 24,-7 49,-11 77,-11l19 0 6 0 -2 5 -33 78 -1 2 -2 0c-39,4 -73,15 -102,32 -29,17 -53,41 -72,71 -19,31 -33,69 -42,115 -9,46 -14,99 -14,160l0 265 0 4 -4 0 -78 10 -4 0 0 -4zm501 -361c0,40 7,76 21,110 14,34 35,65 63,93 28,28 59,49 93,63 34,14 71,21 110,21 40,0 77,-7 111,-21 33,-14 64,-35 92,-63 28,-28 49,-59 63,-93 14,-33 21,-70 21,-110 0,-39 -7,-76 -21,-110 -14,-34 -35,-64 -63,-92l0 0c-28,-28 -59,-49 -92,-63l0 0c-34,-14 -71,-21 -111,-21 -39,0 -76,7 -110,21 -34,14 -65,35 -93,63 -28,28 -49,58 -63,92 -14,34 -21,71 -21,110zm-88 0c0,-52 8,-100 26,-144l0 0c18,-44 45,-84 81,-119 36,-36 77,-62 121,-80 45,-18 94,-26 147,-26 54,0 103,8 147,26 45,18 85,44 121,80 35,35 62,75 80,119 18,43 27,92 27,144 0,53 -9,102 -27,146 -18,44 -45,84 -80,119 -36,36 -76,63 -121,80 -44,18 -93,27 -147,27 -53,0 -102,-9 -146,-27 -45,-18 -85,-44 -121,-80 -36,-36 -63,-76 -81,-120 -18,-44 -27,-92 -27,-145zm1521 285c-20,14 -40,26 -61,37 -22,11 -44,20 -67,28l0 0c-23,7 -45,13 -68,16 -23,4 -46,6 -68,6 -54,0 -103,-9 -147,-27 -45,-18 -85,-44 -121,-80 -36,-36 -63,-76 -81,-120 -18,-44 -27,-92 -27,-145 0,-52 9,-101 27,-145 18,-44 45,-84 80,-119 36,-35 77,-62 121,-79 45,-18 94,-26 148,-26 25,0 49,1 72,4 23,4 45,8 66,15 21,6 42,15 62,25 20,10 40,22 60,36l3 2 -2 4 -53 63 -2 2 -3 -2c-17,-11 -34,-21 -50,-29 -17,-9 -34,-16 -50,-21l0 0c-16,-6 -33,-10 -50,-12 -17,-3 -35,-4 -53,-4 -40,0 -77,7 -111,21 -33,14 -64,35 -93,63 -28,28 -49,59 -63,93 -14,33 -21,70 -21,109l0 0c0,40 7,76 21,110 14,34 35,64 63,93 29,28 60,49 93,63 34,14 71,21 111,21 16,0 34,-2 51,-5 17,-3 35,-7 52,-14 18,-6 36,-13 53,-22 17,-9 35,-19 51,-31l3 -2 3 3 52 64 2 3 -3 2zm186 77l0 -443 -72 51 -6 4 0 -7 0 -75 0 -2 2 -1 76 -54 0 -467 0 -4 3 0 79 -11 5 -1 0 5 0 430 71 -52 6 -4 0 7 0 75 0 2 -2 1 -75 54 0 481 0 3 -4 1 -79 11 -4 1 0 -5zm350 -252c0,26 4,49 13,70 8,21 21,40 38,57 17,17 37,30 58,38 22,9 46,13 73,13 26,0 50,-4 71,-12 21,-8 39,-21 56,-37 15,-16 27,-35 35,-57 8,-21 12,-45 12,-72 0,-26 -4,-50 -12,-71 -8,-22 -20,-41 -36,-57 -16,-17 -34,-29 -55,-37 -21,-8 -44,-12 -70,-12 -27,0 -51,4 -73,12 -22,9 -42,21 -59,38 -17,17 -30,36 -38,57 -9,21 -13,45 -13,70zm356 181c-10,11 -22,22 -34,31 -14,11 -29,20 -45,28 -16,7 -33,13 -51,17 -17,3 -35,5 -54,5 -36,0 -70,-6 -101,-19 -31,-13 -59,-32 -84,-57 -26,-26 -45,-54 -58,-85 -12,-31 -19,-64 -19,-101 0,-36 7,-69 19,-100 13,-31 32,-59 58,-85 25,-25 54,-44 84,-57 31,-13 65,-19 101,-19 18,0 36,1 53,5 17,4 34,9 51,16l0 0c16,7 32,16 47,26l0 0c12,8 23,18 33,29l0 -79c0,-24 -3,-45 -8,-62 -6,-18 -15,-32 -27,-43l0 0c-12,-11 -27,-20 -45,-25 -19,-6 -41,-9 -66,-9 -15,0 -31,1 -47,3 -16,3 -33,6 -51,10 -17,5 -36,10 -56,17 -20,7 -42,15 -64,25l-8 3 3 -8 31 -91 0 -2 2 -1c17,-6 35,-11 51,-15 17,-5 34,-9 51,-12l0 0c16,-3 33,-5 49,-7 16,-1 32,-2 47,-2 78,0 135,18 171,55l0 0c18,18 32,42 41,71 9,28 13,62 13,101l0 497 0 3 -3 1 -79 17 -5 1 0 -5 0 -77zm492 77l-306 -707 -2 -4 4 -1 79 -29 4 -1 1 4 229 539 254 -540 3 -7 4 7 253 537 241 -537 1 -3 3 1 73 25 4 1 -1 4 -318 711 -3 8 -4 -8 -257 -555 -255 555 -4 8 -3 -8zm900 -108l59 -57 3 -2 3 3c12,14 25,26 39,37 14,11 28,20 43,27l0 0c15,7 31,13 47,16 16,4 32,6 50,6 21,0 40,-3 58,-9 17,-6 32,-15 46,-27l0 0c13,-12 23,-25 30,-40 6,-16 10,-33 10,-51 0,-17 -3,-32 -8,-45 -4,-13 -12,-24 -21,-34 -10,-9 -24,-18 -42,-26 -17,-8 -39,-15 -65,-22l0 0c-44,-11 -81,-23 -111,-36 -31,-13 -54,-27 -71,-43 -16,-15 -28,-33 -37,-55 -8,-21 -12,-45 -12,-72 0,-29 6,-55 17,-79 11,-24 28,-46 50,-65l0 0c22,-20 47,-34 75,-44 28,-10 59,-15 93,-15l0 0c20,0 40,2 59,5 19,4 37,9 55,15l0 0c18,7 35,15 52,25 16,10 32,22 47,35l3 2 -2 3 -50 65 -2 3 -4 -2c-13,-12 -26,-22 -39,-30 -14,-9 -27,-16 -41,-22l0 0c-13,-6 -27,-10 -40,-13 -13,-3 -26,-5 -40,-5 -21,0 -41,3 -58,9 -17,5 -32,13 -45,24l0 0c-13,11 -23,24 -29,38 -7,14 -10,30 -10,48 0,27 11,49 35,68 23,20 59,35 107,47 10,2 18,4 25,6l0 0c8,2 15,4 21,5l0 0c30,9 56,19 79,32l0 0c23,13 42,27 57,44l0 0c15,16 26,35 34,56 8,20 11,43 11,67 0,32 -5,62 -17,89l0 0c-12,26 -29,50 -52,72l0 0c-23,21 -49,37 -78,47 -29,11 -61,16 -96,16 -24,0 -48,-2 -70,-7 -23,-4 -44,-12 -64,-21 -20,-9 -39,-21 -56,-35l0 0c-18,-14 -34,-30 -48,-48l-2 -3 2 -2zm739 -269l304 -361 2 -2 3 2 66 39 4 2 -3 4 -270 322 308 319 2 3 -3 3 -61 46 -2 2 -3 -2 -347 -357 0 340 0 3 -3 1 -79 14 -4 1 0 -5 0 -999 0 -3 3 -1 79 -9 4 -1 0 5 0 634zm517 -565l59 -72 3 -3 3 3 61 65 2 2 -2 3 -61 72 -2 3 -3 -3 -60 -65 -2 -2 2 -3zm19 936l0 -712 0 -4 4 0 80 -10 4 0 0 4 0 711 0 3 -3 1 -80 11 -5 1 0 -5z"/>
   <g>
    <path class="fil1" d="M2389 1874c22,-55 48,-91 138,-100l30 -3 51 12 62 15c33,-42 68,-75 137,-62l60 19c60,26 119,48 183,44l-55 74c-21,34 -35,65 -43,94 -10,25 -18,51 -19,80 -5,85 0,151 34,236 30,78 96,151 165,202l-9 318c-180,55 -364,-60 -373,-56 -99,64 -309,56 -356,51l-9 -313c55,1 192,-152 219,-210 35,-82 53,-163 40,-249l-50 -41c-82,-39 -100,-64 -96,-94l7 5c103,49 122,19 99,-1 -61,-23 -90,-55 -215,-14l0 -7zm215 487c22,-35 17,-39 52,-9l34 34 26 -34c21,-56 34,-21 60,4l21 22 30 -34c9,-13 17,-26 30,0 5,0 22,38 35,38 8,4 17,-30 25,-38 13,-18 17,-26 30,-18 22,22 13,43 43,69 35,34 90,103 125,146l4 34c-21,52 -43,112 -77,150 -17,-21 -26,-38 -35,-64 -21,30 -30,56 -51,69l-47 -52 -47 52c-35,-22 -35,-35 -56,-69l-22 17 -38 52 -69 -65c-9,30 -21,65 -43,82l-47 -52 -52 65 -25 -30 -48 -69 -51 -112 64 -51 30 -39 56 -43c13,-30 34,-38 43,-55l0 0zm-30 55c0,-12 52,-60 56,-55 21,21 47,47 56,55 -5,30 -39,78 -60,95 -22,-22 -61,-65 -52,-95l0 0zm-73 82c4,-13 47,-56 52,-52 21,22 51,65 60,73 -5,39 -35,60 -60,78 -18,-22 -60,-69 -52,-99l0 0zm-69 60c0,-13 48,-43 52,-39 21,18 34,60 43,73 -26,30 -26,35 -52,60 -21,-25 -51,-64 -43,-94l0 0zm61 99c4,-13 47,-56 51,-52 30,30 21,30 39,60 8,22 -26,43 -48,69 -17,-26 -51,-47 -42,-77l0 0zm587 -22c5,5 -30,65 -38,65 -9,-5 -35,-56 -30,-65 0,-4 25,-51 25,-47 0,0 43,43 43,47l0 0zm-4 -21c13,-13 34,-35 26,-52 -9,-17 -35,-47 -35,-43 -4,9 -12,18 -25,43 0,5 -17,9 34,52l0 0zm-77 21c-13,17 -30,60 -43,69 -17,-26 -39,-43 -43,-60 0,-13 43,-77 47,-77 22,25 30,38 39,68l0 0zm-421 -21c0,-13 43,-47 48,-43 21,21 38,47 51,56 -9,38 -21,77 -47,94 -22,-21 -60,-77 -52,-107l0 0zm52 -86c0,-9 56,-64 60,-60 17,21 38,51 47,64 -4,35 -26,60 -51,82 -18,-26 -65,-56 -56,-86l0 0zm116 4c4,-8 43,-68 47,-64 17,21 38,56 47,64 -4,35 -21,60 -43,78 -17,-22 -56,-52 -51,-78l0 0zm-56 116c0,-8 51,-77 56,-73 17,17 30,52 43,60 -9,35 -22,60 -43,78 -22,-22 -48,-39 -56,-65l0 0zm116 -17c0,-13 38,-64 43,-60 21,21 47,64 55,73 -4,34 -25,43 -47,60 -17,-22 -60,-47 -51,-73l0 0zm47 -99c4,-8 43,-73 47,-68 17,21 39,60 47,68 -13,35 -21,60 -43,82 -17,-22 -55,-52 -51,-82l0 0zm107 -8c0,-9 39,-82 43,-78 22,18 43,56 52,65 -13,26 -22,60 -43,86 -17,-22 -60,-43 -52,-73l0 0zm-266 -108c4,-12 47,-55 52,-55 13,21 34,43 43,51 -5,39 -22,73 -43,95 -18,-22 -56,-61 -52,-91l0 0zm202 0c0,-12 43,-60 43,-55 17,21 38,51 47,60 -4,38 -17,60 -39,86 -17,-22 -60,-61 -51,-91l0 0zm-103 0c0,-8 47,-55 51,-51 18,21 39,39 48,51 -5,35 -26,73 -48,99 -17,-26 -60,-64 -51,-99l0 0zm-15 -603c25,7 47,20 63,22 -14,5 -18,5 -29,16 -27,23 -66,6 -83,-3 -6,-11 11,-35 49,-35zm-88 1436c0,30 43,68 56,77 17,-13 51,-39 68,-86l-64 -51 -60 60zm69 -129c0,17 17,43 47,82l25 25c18,-17 43,-64 61,-111l-65 -47 -68 51zm-151 9c0,17 18,43 43,86l26 21c17,-17 47,-64 64,-112l-64 -47 -69 52zm39 403c0,0 26,-4 103,-4 81,4 90,8 90,8 30,-17 -21,-38 -103,-43 -90,9 -90,39 -90,39l0 0zm-17 69c0,0 34,8 133,4 103,-4 116,-13 116,-13 43,30 -30,77 -129,86 -120,-22 -120,-77 -120,-77l0 0zm339 -562c-60,158 -138,244 -223,330 -120,-116 -181,-219 -211,-322 13,-13 56,43 86,39 17,0 39,-43 56,-47 26,0 47,60 69,51 25,-9 60,-47 77,-51 21,-5 39,38 60,38 34,0 51,-38 86,-38l0 0zm111 832c5,9 -146,-47 -210,-146 30,163 69,155 206,210l4 -64zm-309 -159l5 399c128,-180 -5,-429 -5,-399l0 0zm-266 232c5,-22 125,-69 146,-215 35,90 17,211 -159,271l13 -56zm-124 -1013c262,30 506,26 742,5l-8 137c-65,39 -35,94 0,137l8 283c-13,69 -38,121 -77,159 -77,-81 -107,-150 -90,-206 13,-38 17,-86 -9,-141 -68,34 -85,163 -34,214 30,56 17,116 -9,163 48,95 112,129 215,172l0 167 -77 13c-78,-4 -116,-30 -163,-56 -35,120 -26,180 -116,262 -82,-60 -142,-137 -142,-253 -47,60 -154,68 -219,47l5 -172c98,-25 171,-73 184,-180 -81,-47 -56,-120 -4,-189 34,-124 30,-145 -47,-193l-26 78 0 81 9 52 -13 90 -43 55 -65 -81 -12 -129 -5 -214c82,-78 47,-103 -4,-193l0 -108zm914 481c43,21 86,69 116,176l47 26c-13,77 -142,17 -159,-39l-4 -163zm-1073 -4c-43,17 -86,64 -116,176l-47 25c13,73 142,13 159,-38l4 -163zm1086 407c60,9 111,-21 159,-38 4,0 8,-5 12,-5 13,0 18,0 5,43 -26,73 -86,129 -176,146l0 -146zm-1129 26c-60,9 -116,-22 -163,-39 -4,0 -8,-4 -13,-4 -17,0 -21,0 -8,43 26,73 94,129 184,146l0 -146zm918 -1639c69,26 146,17 202,4 17,0 22,-13 17,13 -17,77 -197,112 -227,-9 -4,-17 -4,-8 8,-8l0 0zm69 111c-73,-17 -124,-60 -124,-133 0,-17 -5,-17 13,-12 42,8 81,21 124,8 4,-4 4,-47 0,-56 -17,-25 -43,-55 -30,-64 0,-4 21,0 43,0 8,0 4,-77 4,-73 0,4 -26,-21 -26,-34 0,-9 61,-17 78,0 8,8 -22,30 -22,38 -4,26 5,69 9,69 13,0 30,-4 38,0 9,9 -8,39 -25,60 -26,22 -17,56 -13,60 38,13 81,0 120,-8 9,-5 17,0 17,8 -8,60 -51,112 -137,137l0 1717 21 13c73,43 69,94 -13,124l-25 13c43,111 -90,120 -52,4l-26 -17c-77,-47 -81,-90 -8,-120l34 -13 0 -1721zm-965 -120c68,26 141,17 201,9 18,-4 22,-17 18,8 -18,78 -198,112 -228,-8 -4,-13 -4,-9 9,-4l0 -5zm68 112c-73,-17 -124,-60 -124,-133 0,-17 -4,-17 13,-13 43,9 81,21 124,9 5,0 5,-48 0,-56 -17,-22 -43,-56 -30,-65 0,-4 22,0 43,0 9,0 4,-77 4,-73 0,5 -25,-21 -25,-34 0,-8 60,-17 77,0 8,9 -22,30 -22,39 -4,26 5,68 9,68 13,0 30,-4 39,0 8,9 -9,39 -30,61 -22,21 -13,55 -9,60 39,12 82,0 120,-9 9,-4 17,0 17,13 -8,56 -51,107 -137,133l0 1716 21 17c73,39 69,95 -12,120l-26 13c43,112 -90,120 -52,5l-25 -18c-78,-47 -82,-85 -13,-120l38 -13 0 -1720zm-442 1133c5,4 146,-26 151,-103 12,-99 -13,-189 85,-266 181,25 39,227 -8,283 -99,99 -82,99 -219,103 0,0 -13,-22 -9,-17l0 0zm-124 -258c94,-47 124,-64 150,-180 9,-124 107,-163 112,0 -56,180 -120,227 -309,202 0,0 38,-18 47,-22l0 0zm-137 -274l51 -9c120,-86 82,-236 129,-270 43,-5 60,13 51,55l-4 69 -39 99c-90,129 -188,64 -188,56l0 0zm652 -146c0,47 -343,-120 -288,-485 198,4 129,-129 13,-60 17,-60 22,-155 -34,-129 -26,39 -34,82 -4,133 -60,-30 -99,-34 -112,-26 -13,43 0,65 99,82 -35,292 51,523 326,622l8 356c-111,215 -330,459 -523,137 124,30 215,-8 236,-107l21 -124 -64 86c-129,47 -219,64 -326,-95l77 -4 56 -22c73,-38 116,-111 116,-210 -60,60 -249,146 -322,-30 94,0 137,-38 163,-146l0 -141c-43,17 -81,13 -107,-13 137,-69 137,-168 159,-296 25,-339 424,-374 407,-56l-38 60c12,116 -5,210 137,215l0 253zm1467 665c-4,4 -146,-22 -154,-103 -9,-99 17,-189 -82,-266 -180,30 -43,227 9,287 99,95 81,95 219,99 0,0 13,-22 8,-17l0 0zm120 -258c-90,-47 -120,-64 -150,-180 -4,-124 -107,-163 -111,0 56,180 124,228 313,197 0,0 -43,-12 -52,-17l0 0zm142 -274l-51 -9c-125,-86 -82,-240 -133,-270 -43,-4 -60,13 -52,56l4 68 39 99c94,129 189,60 193,56l0 0zm-656 -129c0,47 343,-137 287,-502 -197,4 -129,-129 -13,-60 -21,-60 -21,-155 35,-125 25,35 30,78 4,129 60,-30 99,-34 111,-26 13,43 0,65 -98,82 34,292 -56,536 -331,631l0 352c112,210 331,454 524,133 -125,30 -215,-9 -236,-108l-22 -124 65 86c124,47 219,64 326,-95l-82 -4 -51 -21c-77,-39 -116,-112 -120,-211 60,60 248,142 326,-30 -95,0 -138,-38 -163,-146l0 -141c43,17 77,13 107,-17 -142,-65 -142,-168 -163,-296 -26,-335 -425,-369 -412,-52l43 60c-13,116 8,215 -137,215l0 270z"/>
    <path class="fil1" d="M3526 1422c870,423 1233,1478 810,2348 -424,869 -1479,1232 -2349,808 -870,-425 -1234,-1479 -809,-2348 423,-869 1478,-1232 2348,-808l0 0zm-35 70c827,403 1171,1407 768,2235 -404,827 -1407,1174 -2233,772 -827,-404 -1171,-1407 -767,-2236 403,-826 1407,-1173 2232,-771l0 0z"/>
   </g>
  </g>
 </g>
</svg>
